<?xml version="1.0" encoding="utf-8"?>
<!-- Generator: Adobe Illustrator 22.1.0, SVG Export Plug-In . SVG Version: 6.00 Build 0)  -->
<svg version="1.1" xmlns="http://www.w3.org/2000/svg" xmlns:xlink="http://www.w3.org/1999/xlink" x="0px" y="0px"
	 viewBox="0 0 100 100" style="enable-background:new 0 0 100 100;" xml:space="preserve">
<style type="text/css">
	.st0{fill:#43CB30;}
</style>
<g id="Layer_2">
</g>
<g id="Layer_1">
	<path class="st0" d="M97.5,50C97.5,23.8,76.2,2.5,50,2.5S2.5,23.8,2.5,50S23.8,97.5,50,97.5S97.5,76.2,97.5,50z M38.7,72.9
		c-1.6-1.6-1.6-4.1,0-5.6L56,50L38.7,32.8C38,32,37.6,31,37.6,29.9c0-1,0.4-2,1.2-2.8c1.6-1.6,4.1-1.6,5.6,0l20.1,20.1
		c1.6,1.6,1.6,4.1,0,5.6L44.4,72.9C42.8,74.4,40.3,74.4,38.7,72.9z"/>
</g>
</svg>
